{
    "asset" : {
        "generator" : "Khronos glTF Blender I/O v1.7.33",
        "version" : "2.0"
    },
    "scene" : 0,
    "scenes" : [
        {
            "name" : "Scene",
            "nodes" : [
                0,
                1,
                2
            ]
        }
    ],
    "nodes" : [
        {
            "mesh" : 0,
            "name" : "EXPORT_GOOGLE_SAT_WM",
            "rotation" : [
                0,
                0,
                -0.6975856423377991,
                0.7165014147758484
            ],
            "scale" : [
                0.13758301734924316,
                0.13758301734924316,
                0.13758303225040436
            ]
        },
        {
            "mesh" : 1,
            "name" : "Areas:building",
            "rotation" : [
                0,
                0,
                -0.6975856423377991,
                0.7165014147758484
            ],
            "scale" : [
                0.13758301734924316,
                0.13758301734924316,
                0.13758303225040436
            ]
        },
        {
            "mesh" : 2,
            "name" : "Areas:leisure",
            "rotation" : [
                0,
                0,
                -0.6975856423377991,
                0.7165014147758484
            ],
            "scale" : [
                0.13758301734924316,
                0.13758301734924316,
                0.13758303225040436
            ]
        }
    ],
    "materials" : [
        {
            "doubleSided" : true,
            "name" : "rastMat",
            "pbrMetallicRoughness" : {
                "baseColorTexture" : {
                    "index" : 0
                },
                "metallicFactor" : 0,
                "roughnessFactor" : 0.5
            }
        }
    ],
    "meshes" : [
        {
            "name" : "Mesh_0",
            "primitives" : [
                {
                    "attributes" : {
                        "POSITION" : 0,
                        "NORMAL" : 1,
                        "TEXCOORD_0" : 2
                    },
                    "indices" : 3,
                    "material" : 0
                }
            ]
        },
        {
            "name" : "Mesh_1",
            "primitives" : [
                {
                    "attributes" : {
                        "POSITION" : 4,
                        "NORMAL" : 5
                    },
                    "indices" : 6
                }
            ]
        },
        {
            "name" : "Mesh_2",
            "primitives" : [
                {
                    "attributes" : {
                        "POSITION" : 7,
                        "NORMAL" : 8
                    },
                    "indices" : 9
                }
            ]
        }
    ],
    "textures" : [
        {
            "sampler" : 0,
            "source" : 0
        }
    ],
    "images" : [
        {
            "bufferView" : 4,
            "mimeType" : "image/png",
            "name" : "Image_0"
        }
    ],
    "accessors" : [
        {
            "bufferView" : 0,
            "componentType" : 5126,
            "count" : 5,
            "max" : [
                150.696533203125,
                0,
                90.64606475830078
            ],
            "min" : [
                -155.05157470703125,
                0,
                -100.44650268554688
            ],
            "type" : "VEC3"
        },
        {
            "bufferView" : 1,
            "componentType" : 5126,
            "count" : 5,
            "type" : "VEC3"
        },
        {
            "bufferView" : 2,
            "componentType" : 5126,
            "count" : 5,
            "type" : "VEC2"
        },
        {
            "bufferView" : 3,
            "componentType" : 5123,
            "count" : 6,
            "type" : "SCALAR"
        },
        {
            "bufferView" : 5,
            "componentType" : 5126,
            "count" : 1103,
            "max" : [
                197.07810974121094,
                20.000015258789062,
                138.82530212402344
            ],
            "min" : [
                -169.57489013671875,
                -7.62939453125e-06,
                -180.52029418945312
            ],
            "type" : "VEC3"
        },
        {
            "bufferView" : 6,
            "componentType" : 5126,
            "count" : 1103,
            "type" : "VEC3"
        },
        {
            "bufferView" : 7,
            "componentType" : 5123,
            "count" : 1128,
            "type" : "SCALAR"
        },
        {
            "bufferView" : 8,
            "componentType" : 5126,
            "count" : 56,
            "max" : [
                92.7717514038086,
                1.52587890625e-05,
                66.51126861572266
            ],
            "min" : [
                -90.04824829101562,
                -7.62939453125e-06,
                -61.168880462646484
            ],
            "type" : "VEC3"
        },
        {
            "bufferView" : 9,
            "componentType" : 5126,
            "count" : 56,
            "type" : "VEC3"
        },
        {
            "bufferView" : 10,
            "componentType" : 5123,
            "count" : 57,
            "type" : "SCALAR"
        }
    ],
    "bufferViews" : [
        {
            "buffer" : 0,
            "byteLength" : 60,
            "byteOffset" : 0
        },
        {
            "buffer" : 0,
            "byteLength" : 60,
            "byteOffset" : 60
        },
        {
            "buffer" : 0,
            "byteLength" : 40,
            "byteOffset" : 120
        },
        {
            "buffer" : 0,
            "byteLength" : 12,
            "byteOffset" : 160
        },
        {
            "buffer" : 0,
            "byteLength" : 2842698,
            "byteOffset" : 172
        },
        {
            "buffer" : 0,
            "byteLength" : 13236,
            "byteOffset" : 2842872
        },
        {
            "buffer" : 0,
            "byteLength" : 13236,
            "byteOffset" : 2856108
        },
        {
            "buffer" : 0,
            "byteLength" : 2256,
            "byteOffset" : 2869344
        },
        {
            "buffer" : 0,
            "byteLength" : 672,
            "byteOffset" : 2871600
        },
        {
            "buffer" : 0,
            "byteLength" : 672,
            "byteOffset" : 2872272
        },
        {
            "buffer" : 0,
            "byteLength" : 114,
            "byteOffset" : 2872944
        }
    ],
    "samplers" : [
        {
            "magFilter" : 9729,
            "minFilter" : 9987,
            "wrapS" : 33071,
            "wrapT" : 33071
        }
    ],
    "buffers" : [
        {
            "byteLength" : 2873060,
            "uri" : "data:application/octet-stream;base64,"
        }
    ]
}
